<svg width="29" height="22" viewBox="0 0 29 22" fill="none" xmlns="http://www.w3.org/2000/svg">
<path d="M22.956 3.00076C22.9489 2.98715 22.9371 2.97649 22.9226 2.97068C21.2547 2.2191 19.4946 1.68316 17.6864 1.37628C17.6699 1.37328 17.653 1.37545 17.6379 1.38247C17.6228 1.38949 17.6103 1.40101 17.6022 1.41539C17.3626 1.84262 17.145 2.28146 16.9504 2.73023C15.0011 2.43962 13.0184 2.43962 11.0692 2.73023C10.8733 2.28032 10.6522 1.84137 10.4071 1.41539C10.3987 1.40132 10.3861 1.39007 10.3711 1.38309C10.3561 1.37612 10.3393 1.37375 10.3229 1.37628C8.51443 1.68252 6.75421 2.2185 5.08654 2.97073C5.07226 2.97667 5.06022 2.98682 5.05206 2.99977C1.71704 7.89125 0.803456 12.6625 1.25163 17.3746C1.25289 17.3861 1.2565 17.3973 1.26225 17.4075C1.268 17.4176 1.27577 17.4265 1.2851 17.4337C3.22705 18.8459 5.39915 19.9238 7.70869 20.6215C7.72496 20.6263 7.74233 20.626 7.75846 20.6209C7.7746 20.6157 7.78873 20.6057 7.79895 20.5924C8.29499 19.9295 8.73452 19.2276 9.11307 18.4937C9.11827 18.4837 9.12124 18.4726 9.12178 18.4614C9.12232 18.4501 9.12043 18.4388 9.11621 18.4283C9.112 18.4178 9.10557 18.4083 9.09735 18.4004C9.08912 18.3925 9.07928 18.3864 9.06849 18.3825C8.37538 18.1221 7.70437 17.8081 7.06176 17.4435C7.05009 17.4368 7.04029 17.4273 7.03322 17.416C7.02615 17.4047 7.02203 17.3918 7.02123 17.3785C7.02043 17.3652 7.02297 17.352 7.02863 17.3399C7.03429 17.3278 7.04289 17.3173 7.05367 17.3092C7.18851 17.21 7.32343 17.1068 7.45219 17.0026C7.46363 16.9933 7.47747 16.9874 7.49215 16.9854C7.50684 16.9835 7.52179 16.9856 7.53531 16.9916C11.7453 18.8786 16.3032 18.8786 20.4634 16.9916C20.477 16.9852 20.4921 16.9828 20.507 16.9846C20.5219 16.9864 20.536 16.9922 20.5476 17.0016C20.6764 17.1058 20.8113 17.21 20.9471 17.3092C20.958 17.3172 20.9667 17.3276 20.9724 17.3397C20.9781 17.3517 20.9808 17.365 20.9801 17.3782C20.9794 17.3915 20.9754 17.4044 20.9684 17.4158C20.9614 17.4272 20.9517 17.4367 20.94 17.4435C20.2989 17.8112 19.6273 18.1249 18.9324 18.3816C18.9216 18.3856 18.9118 18.3918 18.9036 18.3998C18.8954 18.4078 18.8891 18.4174 18.8849 18.428C18.8808 18.4386 18.879 18.45 18.8796 18.4613C18.8803 18.4726 18.8833 18.4837 18.8886 18.4937C19.2735 19.2235 19.7124 19.9246 20.2017 20.5913C20.2117 20.6049 20.2257 20.6152 20.2419 20.6206C20.2581 20.626 20.2756 20.6263 20.292 20.6213C22.6057 19.926 24.7816 18.848 26.7259 17.4337C26.7354 17.4269 26.7433 17.4182 26.7491 17.4082C26.7548 17.3981 26.7584 17.387 26.7594 17.3756C27.296 11.9279 25.8611 7.19576 22.956 3.00076ZM9.7418 14.5054C8.47427 14.5054 7.42987 13.363 7.42987 11.96C7.42987 10.5569 8.45402 9.41445 9.7418 9.41445C11.0396 9.41445 12.0739 10.5669 12.0537 11.9599C12.0537 13.363 11.0295 14.5054 9.7418 14.5054ZM18.2897 14.5054C17.0222 14.5054 15.9778 13.363 15.9778 11.96C15.9778 10.5569 17.0019 9.41445 18.2897 9.41445C19.5876 9.41445 20.6219 10.5669 20.6016 11.9599C20.6016 13.363 19.5876 14.5054 18.2897 14.5054Z" fill="#E0E0E0"/>
</svg>
