<svg width="23" height="22" viewBox="0 0 23 22" fill="none" xmlns="http://www.w3.org/2000/svg">
<g clip-path="url(#clip0_5_26)">
<path d="M7.36628 17.0758C7.36628 17.1617 7.26426 17.2305 7.13563 17.2305C6.98926 17.2434 6.88725 17.1746 6.88725 17.0758C6.88725 16.9898 6.98926 16.9211 7.11789 16.9211C7.25096 16.9082 7.36628 16.977 7.36628 17.0758ZM5.98684 16.8824C5.9558 16.9684 6.04451 17.0672 6.17757 17.093C6.29289 17.1359 6.42596 17.093 6.45257 17.007C6.47918 16.9211 6.39491 16.8223 6.26184 16.7836C6.14652 16.7535 6.01789 16.7965 5.98684 16.8824ZM7.94733 16.8094C7.8187 16.8395 7.72999 16.9211 7.7433 17.0199C7.7566 17.1059 7.87193 17.1617 8.00499 17.1316C8.13362 17.1016 8.22233 17.0199 8.20902 16.934C8.19572 16.8523 8.07596 16.7965 7.94733 16.8094ZM10.8659 0.34375C4.71386 0.34375 0.0078125 4.86836 0.0078125 10.8281C0.0078125 15.5934 3.10378 19.6711 7.52596 21.1063C8.0937 21.2051 8.2933 20.8656 8.2933 20.5863C8.2933 20.3199 8.27999 18.8504 8.27999 17.948C8.27999 17.948 5.17515 18.5926 4.52314 16.6676C4.52314 16.6676 4.01749 15.4172 3.29007 15.0949C3.29007 15.0949 2.27434 14.4203 3.36104 14.4332C3.36104 14.4332 4.46547 14.5191 5.07313 15.5418C6.04451 17.2004 7.67233 16.7234 8.3066 16.4398C8.40862 15.7523 8.69693 15.2754 9.01628 14.9918C6.53684 14.7254 4.03523 14.3773 4.03523 10.2437C4.03523 9.06211 4.37233 8.46914 5.08201 7.71289C4.96668 7.43359 4.58967 6.28203 5.19733 4.79531C6.12434 4.51602 8.25781 5.95547 8.25781 5.95547C9.14491 5.71484 10.0985 5.59023 11.0433 5.59023C11.9881 5.59023 12.9417 5.71484 13.8288 5.95547C13.8288 5.95547 15.9622 4.51172 16.8893 4.79531C17.4969 6.28633 17.1199 7.43359 17.0046 7.71289C17.7143 8.47344 18.1489 9.06641 18.1489 10.2437C18.1489 14.3902 15.5364 14.7211 13.057 14.9918C13.4651 15.3312 13.811 15.9758 13.811 16.9855C13.811 18.4336 13.7977 20.2254 13.7977 20.5777C13.7977 20.857 14.0018 21.1965 14.5651 21.0977C19.0006 19.6711 22.0078 15.5934 22.0078 10.8281C22.0078 4.86836 17.0179 0.34375 10.8659 0.34375ZM4.3191 15.1637C4.26144 15.2066 4.27475 15.3055 4.35015 15.3871C4.42112 15.4559 4.52313 15.4859 4.5808 15.4301C4.63846 15.3871 4.62515 15.2883 4.54975 15.2066C4.47878 15.1379 4.37676 15.1078 4.3191 15.1637ZM3.84007 14.8156C3.80902 14.8715 3.85338 14.9402 3.94209 14.9832C4.01305 15.0262 4.10176 15.0133 4.13281 14.9531C4.16386 14.8973 4.11951 14.8285 4.0308 14.7855C3.94209 14.7598 3.87112 14.7727 3.84007 14.8156ZM5.27717 16.3453C5.2062 16.4012 5.23281 16.5301 5.33483 16.6117C5.43684 16.7105 5.56547 16.7234 5.62313 16.6547C5.6808 16.5988 5.65418 16.4699 5.56547 16.3883C5.46789 16.2895 5.33483 16.2766 5.27717 16.3453ZM4.77152 15.7137C4.70055 15.7566 4.70055 15.8684 4.77152 15.9672C4.84249 16.066 4.96225 16.109 5.01991 16.066C5.09088 16.0102 5.09088 15.8984 5.01991 15.7996C4.95781 15.7008 4.84249 15.6578 4.77152 15.7137Z" fill="#E0E0E0"/>
</g>
<defs>
<clipPath id="clip0_5_26">
<rect width="22" height="22" fill="white" transform="translate(0.0078125)"/>
</clipPath>
</defs>
</svg>
