<svg width="22" height="22" viewBox="0 0 22 22" fill="none" xmlns="http://www.w3.org/2000/svg">
<path d="M11.0045 5.83849C8.16517 5.83849 5.87499 8.14298 5.87499 11C5.87499 13.857 8.16517 16.1615 11.0045 16.1615C13.8437 16.1615 16.1339 13.857 16.1339 11C16.1339 8.14298 13.8437 5.83849 11.0045 5.83849ZM11.0045 14.3557C9.16963 14.3557 7.66963 12.8508 7.66963 11C7.66963 9.14923 9.16517 7.64435 11.0045 7.64435C12.8437 7.64435 14.3393 9.14923 14.3393 11C14.3393 12.8508 12.8393 14.3557 11.0045 14.3557ZM17.5402 5.62736C17.5402 6.29669 17.0045 6.83126 16.3437 6.83126C15.6786 6.83126 15.1473 6.2922 15.1473 5.62736C15.1473 4.96251 15.683 4.42345 16.3437 4.42345C17.0045 4.42345 17.5402 4.96251 17.5402 5.62736ZM20.9375 6.84923C20.8616 5.23654 20.4955 3.80802 19.3214 2.63107C18.1518 1.45411 16.7321 1.08575 15.1295 1.0049C13.4777 0.910559 8.52678 0.910559 6.87499 1.0049C5.27678 1.08126 3.85713 1.44962 2.68303 2.62657C1.50892 3.80353 1.14731 5.23204 1.06696 6.84474C0.973206 8.50685 0.973206 13.4887 1.06696 15.1508C1.14285 16.7635 1.50892 18.192 2.68303 19.369C3.85713 20.5459 5.27231 20.9143 6.87499 20.9951C8.52678 21.0895 13.4777 21.0895 15.1295 20.9951C16.7321 20.9188 18.1518 20.5504 19.3214 19.369C20.4911 18.192 20.8571 16.7635 20.9375 15.1508C21.0312 13.4887 21.0312 8.51134 20.9375 6.84923ZM18.8036 16.9342C18.4553 17.8147 17.7812 18.493 16.9018 18.8479C15.5848 19.3734 12.4598 19.2522 11.0045 19.2522C9.5491 19.2522 6.41963 19.369 5.10713 18.8479C4.23213 18.4975 3.55803 17.8192 3.20535 16.9342C2.68303 15.609 2.80356 12.4645 2.80356 11C2.80356 9.53556 2.68749 6.38654 3.20535 5.06583C3.55356 4.18536 4.22767 3.50704 5.10713 3.15216C6.4241 2.62657 9.5491 2.74786 11.0045 2.74786C12.4598 2.74786 15.5893 2.63107 16.9018 3.15216C17.7768 3.50255 18.4509 4.18087 18.8036 5.06583C19.3259 6.39103 19.2053 9.53556 19.2053 11C19.2053 12.4645 19.3259 15.6135 18.8036 16.9342Z" fill="#E0E0E0"/>
</svg>
