<svg width="21" height="15" viewBox="0 0 21 15" fill="none" xmlns="http://www.w3.org/2000/svg">
<path d="M14.8281 1.44C15.2881 2.48 13.9581 3.87 11.0081 5.45C9.68813 6.15 7.80813 6.96 6.40813 7.42C6.19813 7.49 6.00813 7.57 5.97813 7.59C5.91813 7.63 5.91813 7.64 5.96813 7.75C6.04813 7.93 6.52813 8.67 6.87813 9.15C7.87813 10.55 8.88813 11.6 9.56813 11.94C9.89813 12.11 10.0981 12.11 10.2381 11.95C10.3481 11.84 10.4781 11.85 10.4881 11.99C10.5081 12.24 10.2381 12.44 9.88813 12.44C9.29813 12.44 8.70813 12.08 7.76813 11.13C6.95813 10.33 6.11813 9.34 5.51813 8.48C5.32813 8.21 5.24813 8.12 5.18813 8.12C5.13813 8.12 5.03813 8.23 4.79813 8.55C4.08813 9.48 2.80813 11.32 2.17813 12.28C1.85813 12.77 1.85813 12.78 1.85813 12.98C1.85813 13.19 1.85813 13.2 1.63813 13.52C1.06813 14.37 0.818125 14.54 0.548125 14.28C0.448125 14.17 0.438125 14.14 0.438125 13.97C0.438125 13.71 0.568125 13.4 0.978125 12.67C1.71813 11.37 2.45813 10.2 3.66813 8.39C4.99813 6.41 6.19813 4.77 7.36813 3.33C7.59813 3.05 7.62813 2.98 7.49813 2.98C7.45813 2.98 7.40813 2.95 7.38813 2.92C7.32813 2.81 7.46813 2.6 7.90813 2.11C8.01813 1.99 8.10813 1.87 8.10813 1.85C8.10813 1.76 7.56813 1.93 6.65813 2.32C5.73813 2.71 4.43813 3.42 4.41813 3.54C4.41813 3.57 4.45813 3.62 4.51813 3.66C4.80813 3.84 4.60813 4.08 3.86813 4.43C3.33813 4.69 3.07813 4.71 2.83813 4.53C2.64813 4.38 2.58813 4.06 2.71813 3.82C2.97813 3.3 4.21813 2.59 6.10813 1.89C9.16813 0.749999 12.1081 0.269999 13.6881 0.67C14.2281 0.799999 14.6881 1.11 14.8281 1.44ZM11.8681 4.38C13.6281 3.28 14.5981 2.24 14.3981 1.65C14.3581 1.51 14.1281 1.3 13.9381 1.2C13.5281 0.99 12.7481 0.89 11.9081 0.959999C11.0781 1.02 10.0481 1.19 9.92813 1.29C9.86813 1.34 9.86813 1.34 9.94813 1.46C10.0681 1.63 10.0881 1.81 10.0081 1.99C9.91813 2.18 9.63813 2.56 9.14813 3.13C7.84813 4.66 6.97813 5.72 6.30813 6.57C5.86813 7.12 5.81813 7.2 5.84813 7.25C5.87813 7.3 5.96813 7.27 6.52813 7.05C8.17813 6.39 10.5181 5.22 11.8681 4.38ZM13.92 11.21C13.88 11.16 13.86 11.09 13.86 10.95C13.86 10.79 13.88 10.72 14.04 10.42C14.32 9.87 14.69 9.22 15.03 8.68C15.86 7.36 16.04 6.99 15.87 6.93C15.63 6.83 14.65 7.31 13.95 7.87C13.27 8.41 12.18 9.57 11.4 10.57C10.96 11.13 10.91 11.18 10.78 11.18C10.5 11.18 10.47 10.89 10.67 10.28C10.87 9.67 11.39 8.77 11.99 7.96C12.49 7.29 12.85 6.98 13.14 6.98C13.42 6.98 13.6 7.13 13.66 7.4C13.67 7.46 13.7 7.52 13.73 7.53C13.76 7.54 13.92 7.43 14.11 7.28C15.1 6.49 15.86 6.18 16.29 6.41C16.44 6.48 16.58 6.67 16.62 6.85C16.72 7.26 16.53 7.8 15.91 8.85C15.78 9.09 15.67 9.29 15.67 9.31C15.68 9.33 16.1 9.2 16.23 9.35C16.42 9.56 16.51 9.7 16.62 9.96C16.84 10.48 17.07 10.69 17.44 10.69C18.24 10.69 19.51 9.64 20.03 9.05C20.16 8.9 20.22 8.86 20.25 8.89C20.3 8.95 20.21 9.12 19.96 9.4C19.4 10.06 18.19 11.08 17.33 11.08C16.85 11.08 16.47 10.74 16.22 10.07C16.09 9.72 15.99 9.68 15.7 9.88C15.45 10.04 15.37 10.11 14.71 10.74C14.11 11.31 14.05 11.35 13.92 11.21Z" fill="black"/>
</svg>
