<svg width="37" height="31" viewBox="0 0 37 31" fill="none" xmlns="http://www.w3.org/2000/svg">
<path d="M0 2.58333C0 1.15443 1.18103 0 2.64286 0H34.3571C35.819 0 37 1.15443 37 2.58333C37 4.01224 35.819 5.16667 34.3571 5.16667H2.64286C1.18103 5.16667 0 4.01224 0 2.58333ZM0 15.5C0 14.0711 1.18103 12.9167 2.64286 12.9167H34.3571C35.819 12.9167 37 14.0711 37 15.5C37 16.9289 35.819 18.0833 34.3571 18.0833H2.64286C1.18103 18.0833 0 16.9289 0 15.5ZM37 28.4167C37 29.8456 35.819 31 34.3571 31H2.64286C1.18103 31 0 29.8456 0 28.4167C0 26.9878 1.18103 25.8333 2.64286 25.8333H34.3571C35.819 25.8333 37 26.9878 37 28.4167Z" fill="#92713C"/>
</svg>
