<svg width="167" height="43" viewBox="0 0 167 43" fill="none" xmlns="http://www.w3.org/2000/svg">
<path d="M29.4525 2.94857C30.3893 5.07809 27.6807 7.92428 21.6727 11.1595C18.9845 12.5929 15.1557 14.2514 12.3045 15.1933C11.8768 15.3367 11.4898 15.5005 11.4287 15.5414C11.3065 15.6233 11.3065 15.6438 11.4084 15.869C11.5713 16.2376 12.5489 17.7528 13.2617 18.7357C15.2983 21.6024 17.3552 23.7524 18.7401 24.4486C19.4122 24.7967 19.8195 24.7967 20.1046 24.469C20.3286 24.2438 20.5933 24.2643 20.6137 24.5509C20.6544 25.0628 20.1046 25.4724 19.3918 25.4724C18.1902 25.4724 16.9886 24.7352 15.0742 22.79C13.4246 21.1519 11.7139 19.1248 10.4919 17.3638C10.105 16.8109 9.94204 16.6267 9.81984 16.6267C9.71801 16.6267 9.51435 16.8519 9.02557 17.5071C7.5796 19.4114 4.97277 23.179 3.68972 25.1448C3.03801 26.1481 3.03801 26.1686 3.03801 26.5781C3.03801 27.0081 3.03801 27.0286 2.58996 27.6838C1.42911 29.4243 0.91996 29.7724 0.370082 29.24C0.166423 29.0148 0.146057 28.9533 0.146057 28.6052C0.146057 28.0729 0.410814 27.4381 1.24581 25.9433C2.75289 23.2814 4.25996 20.8857 6.72423 17.1795C9.43289 13.1252 11.8768 9.76714 14.2596 6.81857C14.728 6.24523 14.7891 6.1019 14.5244 6.1019C14.4429 6.1019 14.3411 6.04047 14.3003 5.97904C14.1781 5.7538 14.4633 5.3238 15.3594 4.32047C15.5834 4.07476 15.7667 3.82904 15.7667 3.78809C15.7667 3.6038 14.6669 3.9519 12.8136 4.75047C10.94 5.54904 8.2924 7.00285 8.25167 7.24857C8.25167 7.30999 8.33313 7.41238 8.45533 7.49428C9.04594 7.86285 8.63862 8.35428 7.13155 9.07095C6.05216 9.60333 5.52265 9.64428 5.03387 9.27571C4.64691 8.96857 4.52472 8.31333 4.78948 7.8219C5.31899 6.75714 7.84435 5.30333 11.6935 3.86999C17.9255 1.53571 23.913 0.55285 27.1308 1.3719C28.2305 1.63809 29.1674 2.27285 29.4525 2.94857ZM23.4242 8.96857C27.0086 6.71619 28.9841 4.58666 28.5768 3.37857C28.4953 3.0919 28.0269 2.6619 27.6399 2.45714C26.8049 2.02714 25.2164 1.82238 23.5057 1.96571C21.8153 2.08857 19.7176 2.43666 19.4733 2.64142C19.3511 2.7438 19.3511 2.7438 19.514 2.98952C19.7584 3.33761 19.7991 3.70619 19.6362 4.07476C19.4529 4.4638 18.8826 5.2419 17.8847 6.40904C15.2372 9.5419 13.4653 11.7124 12.1008 13.4529C11.2047 14.579 11.1029 14.7429 11.164 14.8452C11.2251 14.9476 11.4084 14.8862 12.5489 14.4357C15.9092 13.0843 20.6748 10.6886 23.4242 8.96857ZM32.7149 17.3638C33.0407 17.1386 33.2037 17.1181 33.2037 17.3024C33.2037 17.6709 32.6131 18.0395 31.554 18.3671C31.0449 18.5309 30.8412 18.5514 30.047 18.5514C29.2934 18.5514 29.049 18.5309 28.5806 18.4081C28.2751 18.3057 27.99 18.2648 27.9289 18.2852C27.8882 18.3057 27.6438 18.6743 27.379 19.1043C25.8923 21.6229 23.9372 23.1381 22.7356 22.6876C22.369 22.5648 22.1654 22.3805 21.9414 22.0324C21.4729 21.2748 21.6155 19.9848 22.3079 18.5719C23.0615 17.0567 24.1001 15.7052 25.2406 14.7429C26.5848 13.6167 27.542 13.3709 28.1326 14.0057C28.601 14.4971 28.7435 15.6848 28.4381 16.7086C28.2344 17.4252 28.2548 17.5686 28.4788 17.6505C29.6193 18.1009 31.8799 17.9371 32.7149 17.3638ZM25.9127 19.5138C26.4422 18.92 27.0735 17.9986 27.0735 17.8143C27.0735 17.6505 26.4829 17.0362 26.3404 17.0362C26.1978 17.0362 25.7905 17.4867 25.1184 18.3057C24.5889 18.9609 24.2223 19.5548 23.8557 20.2509C23.367 21.2748 23.5095 21.5 24.3038 20.9676C24.7926 20.6605 25.3425 20.169 25.9127 19.5138ZM27.5623 16.9133C27.7253 16.7495 27.9085 16.1148 27.9289 15.7871C27.9289 15.3776 27.7456 15.3981 27.2772 15.869C26.8088 16.34 26.7884 16.4833 27.0939 16.8109C27.3383 17.0771 27.4198 17.0771 27.5623 16.9133ZM37.3793 14.7429C35.5667 17.7938 34.3651 20.7424 34.1411 22.749C34.0393 23.7524 34.1818 23.9981 34.7521 23.6909C35.3631 23.3633 35.9333 22.8924 38.5198 20.4967C40.1083 19.0429 42.206 17.2205 42.3893 17.1386C42.5726 17.0567 42.7559 17.159 42.7559 17.3229C42.7559 17.4252 42.5115 17.6505 42.2875 17.7324C42.1856 17.7733 41.2895 18.6743 40.2712 19.739C36.3203 23.8343 35.4445 24.6533 34.6706 25.0014C34.2837 25.1652 33.7745 25.1652 33.4487 25.0014C32.4507 24.469 32.2878 22.6671 33.0006 20.0871C33.9578 16.6471 36.0351 12.4495 38.5605 8.92761C40.8415 5.69238 43.1836 3.35809 44.8536 2.6619C45.4034 2.41619 46.0755 2.41619 46.4421 2.6619C46.7272 2.86666 46.9309 3.21476 46.9309 3.50142C46.9309 4.05428 46.2384 5.22142 44.9757 6.81857C43.1632 9.07095 40.8618 11.3643 38.5198 13.2686C38.0717 13.6167 37.9699 13.76 37.3793 14.7429ZM44.0797 6.40904C43.8964 6.20428 39.7417 10.9138 39.7417 11.3438C39.7417 11.4871 39.9047 11.3438 40.536 10.6681C41.8598 9.29618 44.1815 6.51142 44.0797 6.40904ZM57.235 18.0805C57.8256 17.5276 57.9885 17.4662 58.0292 17.8143C58.07 18.2443 57.2757 19.1043 55.7483 20.2509C53.2433 22.1348 51.4918 22.4624 50.1069 21.2543C49.5978 20.8243 49.1701 20.0052 48.9868 19.0633C48.9664 18.9609 48.9053 18.8586 48.8646 18.8381C48.6813 18.7767 48.05 19.2886 46.7873 20.5581C44.2008 23.179 43.1825 23.8343 42.2457 23.4043C41.4514 23.0562 41.2681 22.0119 41.7366 20.7833C42.1031 19.8414 43.3455 17.8962 44.4656 16.4833C46.0541 14.5176 47.6019 13.4529 48.885 13.4529C49.5163 13.4529 50.0051 13.6371 50.3513 14.0057C50.7383 14.4357 50.8605 14.8248 50.8197 15.4595C50.7994 15.9305 50.7586 16.0533 50.3717 16.8109L49.944 17.63L50.0458 18.3671C50.1884 19.35 50.3717 19.8209 50.779 20.2305C51.3492 20.8038 52.1231 20.9062 53.2636 20.5171C54.4041 20.1281 56.3389 18.9609 57.235 18.0805ZM48.8442 16.77C48.9664 16.3195 48.9461 16.0943 48.7628 16.0943C48.5591 16.0943 47.663 16.77 47.0724 17.3638C46.1967 18.2443 44.4452 20.5171 44.2823 20.9676C44.2212 21.1724 44.3027 21.2133 44.5674 21.07C45.1173 20.7833 46.4818 19.5548 47.8463 18.1214C48.661 17.2614 48.7424 17.159 48.8442 16.77ZM57.717 23.3019C57.2283 22.9948 57.1061 22.4624 57.3505 21.5409C57.7781 19.8005 60.3646 15.5824 62.4623 13.1867C63.2565 12.2857 63.6639 11.9786 64.0915 11.9376C64.2748 11.9171 64.4989 11.9171 64.5803 11.9376C64.8451 12.0195 65.1506 12.3062 65.232 12.5929C65.395 13.1457 65.1506 13.5962 62.7067 16.8109C61.8309 17.9576 60.8941 19.2271 60.6497 19.5957C60.222 20.2509 60.0184 20.6605 60.1609 20.6605C60.222 20.6605 60.6701 20.2919 61.7495 19.3295C63.8268 17.4867 65.0284 16.6676 65.7004 16.6676C65.9448 16.6676 66.0263 16.7086 66.23 16.9133C66.5151 17.1795 66.5762 17.4048 66.9224 18.92C67.3501 20.9062 68.124 21.1928 69.9162 20.0257C70.6901 19.5138 71.2807 19.0224 71.912 18.3876C72.4212 17.8962 72.6045 17.7938 72.6859 17.9781C72.8489 18.3876 70.5475 20.5171 69.2441 21.1724C68.5517 21.5 67.9 21.5614 67.4315 21.3362C66.5965 20.9267 66.1689 20.0667 65.9856 18.3671C65.8634 17.2614 65.7208 17.0771 65.232 17.3229C64.5192 17.6709 62.8085 19.2886 60.0795 22.1552C59.5092 22.749 59.0205 23.1995 58.8575 23.2814C58.4909 23.4657 58.0022 23.4862 57.717 23.3019ZM91.1075 4.05428C91.25 4.29999 91.2704 4.40238 91.2704 4.8119C91.25 5.36476 91.026 6.08142 90.6594 6.67523C89.804 8.08809 87.8286 10.2381 85.1606 12.6133L84.0609 13.6167L83.3684 14.6814C80.7005 18.7562 78.6028 23.1586 77.7678 26.4143C77.5642 27.2538 77.5234 27.4995 77.5234 28.1138L77.5031 28.8305L77.8086 28.8714C78.2159 28.9124 78.3177 29.0967 78.114 29.4243C77.9919 29.629 77.6253 29.8543 77.4012 29.8543C77.3198 29.8543 77.1569 29.8133 77.055 29.7314C76.6884 29.5062 76.5866 29.1581 76.5459 28.1138C76.4848 25.7181 77.3401 22.6262 79.1934 18.4695C79.4786 17.7938 79.7433 17.159 79.7637 17.0567L79.784 16.8724L79.5397 17.1386C79.4175 17.2819 78.9898 17.8552 78.6028 18.4081C75.9756 22.1348 75.0184 23.1176 74.1834 22.8514C73.6947 22.7081 73.4095 22.3395 73.3077 21.6843C72.7986 18.9814 77.1365 12.6338 79.6618 12.6338C80.4358 12.6338 80.8431 13.1662 81.2097 13.8214C81.3319 14.0467 81.4337 14.1695 81.5151 14.149C81.5559 14.1286 81.9428 13.5552 82.3705 12.8386C84.346 9.58285 86.8306 6.12238 88.2562 4.70952C89.2542 3.70618 89.7633 3.13285 90.2725 3.27619C90.4965 3.33761 90.9038 3.70619 91.1075 4.05428ZM78.9083 16.9952C79.784 15.9305 79.8044 15.9305 79.7637 15.6643C79.7026 15.1114 79.4175 15.0705 78.8676 15.5005C77.8697 16.2376 76.3829 18.2033 75.5683 19.8619C74.8962 21.2543 74.9573 21.5 75.8127 20.6809C76.0775 20.4148 76.6884 19.6981 77.1772 19.1248C77.6456 18.5309 78.4195 17.5686 78.9083 16.9952ZM89.1116 7.24857C89.2745 7.00285 89.0709 7.14618 88.745 7.55571C88.2766 8.16999 88.2562 8.21095 88.6839 7.78095C88.8876 7.55571 89.0912 7.33047 89.1116 7.24857ZM98.0752 27.7657C97.5865 27.5405 97.4439 27.1924 97.4439 26.4143C97.4439 23.9981 100.804 16.4219 105 9.48047C106.364 7.20761 108.543 4.01333 109.704 2.60047C110.682 1.41285 111.802 0.450469 112.311 0.327612C112.942 0.184279 113.492 0.573328 113.696 1.26952C113.859 1.82238 113.757 2.41619 113.411 3.1738C113.085 3.86999 112.026 5.18047 110.926 6.30666C110.621 6.6138 110.376 6.67523 110.234 6.49095C110.173 6.42952 110.111 6.40904 110.03 6.44999C109.806 6.57285 106.547 11.3029 105.101 13.5962C102.311 18.0395 100.112 22.3395 99.2564 24.9605C98.9713 25.8614 98.9306 26.1686 99.0732 26.1686C99.2768 26.1686 99.9082 25.3495 102.25 22.1348C107.281 15.1729 112.046 9.50095 116.71 4.85285C118.971 2.62095 120.07 1.74047 120.987 1.4538C121.761 1.20809 122.168 1.31047 122.474 1.84285C122.82 2.45714 122.799 3.29666 122.453 4.44333C122.229 5.15999 121.17 7.49428 120.335 9.13238C119.969 9.84904 119.134 11.4871 118.461 12.7976C117.81 14.0876 116.975 15.6848 116.629 16.3195C115.875 17.7529 115.488 18.6333 115.223 19.5343C114.918 20.5171 114.938 20.8038 115.284 20.4762C115.366 20.3943 116.18 19.309 117.097 18.0805C120.193 13.9033 121.964 11.7943 124.327 9.39857C127.565 6.16333 129.805 4.77095 131.007 5.26238C131.292 5.38523 131.618 5.79476 131.72 6.16333C131.923 7.02333 131.659 8.43618 130.966 10.2176C130.62 11.0776 129.785 12.8795 128.746 15.0295C127.178 18.2443 126.302 20.3329 125.773 22.0938C125.203 23.9571 125.101 25.0219 125.488 25.5543C125.671 25.8205 125.671 25.8409 125.59 26.0252C125.325 26.4962 124.571 26.2709 124.225 25.6157C123.879 24.899 123.757 23.2405 124.001 22.1348C124.53 19.6981 125.365 17.63 127.993 12.3062C129.948 8.35428 130.213 7.80142 130.416 6.98238C130.538 6.47047 130.477 6.1838 130.233 6.1838C129.846 6.1838 128.746 6.79809 127.646 7.63761C125.264 9.43952 122.331 12.7771 119.582 16.7905C116.425 21.3976 116.018 21.93 115.447 22.2781C114.959 22.5648 114.735 22.5852 114.225 22.4624C113.961 22.4009 113.696 22.319 113.614 22.2576C113.085 21.93 113.065 20.4557 113.574 18.6129C114.307 15.91 116.384 11.3643 119.683 5.26238C120.702 3.35809 121.028 2.70285 120.987 2.51857C120.885 1.74047 117.952 4.11571 114.633 7.67857C110.356 12.2857 106.975 16.5652 102.25 23.4248C100.071 26.5781 99.399 27.4381 98.9102 27.6838C98.6251 27.8271 98.2993 27.8681 98.0752 27.7657ZM144.546 17.2409C144.669 17.5276 143.956 18.2443 142.164 19.6981C139.109 22.1552 137.276 23.22 135.565 23.5476C134.954 23.6705 134.608 23.6705 134.18 23.5886C133.121 23.3838 132.347 22.4829 132.184 21.3362C131.92 19.1452 133.773 16.0329 136.42 14.2105C137.398 13.5552 138.274 13.2481 139.048 13.3095C140.046 13.3914 140.534 14.2514 140.147 15.2752C139.618 16.6471 137.154 18.5719 135.076 19.2476C134.812 19.3295 134.547 19.4729 134.465 19.5548C134.404 19.6162 134.262 19.9438 134.16 20.2509C133.956 20.9267 133.956 21.5819 134.18 21.8276C134.873 22.6057 137.031 22.0119 139.985 20.2509C141.451 19.3705 143.162 18.1829 143.997 17.4252C144.343 17.1386 144.485 17.0771 144.546 17.2409ZM136.156 17.0362C135.565 17.7324 135.667 17.8757 136.4 17.3843C137.235 16.8314 138.253 15.7871 138.253 15.48C138.253 15.1319 136.991 16.0738 136.156 17.0362ZM145.905 22.6671C145.579 22.5648 145.314 22.3805 145.049 22.0733C144.092 20.9881 144.459 18.7971 145.986 16.4833C147.29 14.5381 148.797 13.8009 149.571 14.7429C149.713 14.9067 149.754 15.0295 149.754 15.3162V15.7052L148.919 16.5243C147.188 18.2443 145.966 20.6809 146.536 21.2543C146.658 21.3771 146.719 21.3976 147.127 21.3567C147.738 21.3157 148.349 21.0905 149.449 20.5171C150.874 19.8005 152.972 18.49 154.194 17.5481C154.459 17.3433 154.723 17.1795 154.764 17.2C154.805 17.2205 154.845 17.2819 154.866 17.3638C154.886 17.589 154.336 18.1214 152.911 19.1862C149.998 21.3567 148.41 22.3395 147.29 22.6262C146.882 22.7286 146.19 22.749 145.905 22.6671ZM151.139 11.3438C150.67 11.2414 150.304 10.6681 150.406 10.1767C150.589 9.25523 151.852 9.09142 152.279 9.93095C152.666 10.6681 151.954 11.5281 151.139 11.3438ZM155.107 22.7286C154.394 22.4419 154.211 21.5819 154.618 20.4148C155.352 18.3876 157.164 15.2957 158.406 13.9852C159.221 13.1252 159.669 12.8795 160.26 13.0638C160.932 13.2481 161.258 13.8829 161.054 14.6405C160.932 15.1729 160.667 15.6233 160.015 16.5038C159.384 17.3843 159.241 17.589 159.303 17.63C159.364 17.6914 159.567 17.5481 160.463 16.77C162.317 15.1524 163.029 14.62 163.885 14.3129C164.414 14.1081 165.066 14.0671 165.331 14.2105C165.779 14.4357 166.084 14.9067 165.983 15.2343C165.84 15.7257 165.453 15.7667 165.005 15.3162C164.618 14.9681 164.435 14.9476 163.824 15.1524C161.93 15.8076 160.138 17.4048 157.49 20.8448C156.92 21.5819 156.37 22.2781 156.248 22.4009C155.881 22.7695 155.474 22.8719 155.107 22.7286Z" fill="white"/>
</svg>
